<?xml version="1.0" encoding="utf-8"?>
<!-- Generator: Adobe Illustrator 26.0.3, SVG Export Plug-In . SVG Version: 6.00 Build 0)  -->
<svg version="1.0" id="katman_1" xmlns="http://www.w3.org/2000/svg" xmlns:xlink="http://www.w3.org/1999/xlink" x="0px" y="0px"
	 viewBox="0 0 176 126" style="enable-background:new 0 0 176 126;" xml:space="preserve">
<style type="text/css">
	.st0{fill-rule:evenodd;clip-rule:evenodd;fill:#FF1740;}
</style>
<path class="st0" d="M49.2,60.6c0.4-2.2,0.5-4.2,0.5-6.1c0-4.2-0.7-7.1-0.7-7.1c-0.1-0.2-0.3-0.4-0.5-0.4c0,0-0.1,0-0.1,0l0,0
	c-2.7,0.5-5,0.8-6.9,0.8c-4.7,0-7-1.3-8.1-2.2c-0.2-1.2,0.2-2.2,1.1-2.2c0,0,0.2-0.1,2.4,0.5c2.3,0.5,2.8-1.6,2.9-2.9
	c0,0-0.8,0.8-3.4,0.4c-2.5-0.5-4,2.3-4,3.7c0,0,0,0.2,0,0.4c0,0,0,0,0,0c-0.9,0.8-3.2,2.3-8.3,2.3c-1.9,0-4.2-0.2-6.9-0.8
	c0,0,0,0,0,0c0,0,0,0,0,0v0c0,0-0.1,0-0.1,0c-0.2,0-0.4,0.2-0.5,0.4l0,0c0,0,0,0.1,0,0.2c-0.1,0.7-0.7,3.3-0.7,7
	c0,1.8,0.1,3.8,0.5,6c0.7,4,2.1,7.6,4.1,10.8c0,0.3-0.1,0.6-0.1,0.8c-0.1,0.5-0.2,1-0.3,1.5c-0.1,0.5-0.3,1.3-0.9,1.9
	c-0.6,0.7-0.6,0.8-1,1.8c0,0-1.5,1.4-1.4,2.3c0,0,0,0,0,0.1l0,0c0.3,0.1,2.2,0.8,4.4,0c0,0,0.1-0.1,0.1-0.1c0-0.3,0.1-1.4,0.3-1.9
	c0.3-0.6,0.4-0.8,0.3-1.2c-0.1-0.4-0.1-0.7,0.1-1.1c0.1-0.1,0.2-0.3,0.5-0.5c0.1-0.1,0.3-0.2,0.4-0.3c2.5,2.9,5.8,5.3,9.6,7.2l0,0
	c0.1,0,0.1,0.1,0.2,0.1c0.1,0,0.2,0,0.2-0.1l0,0c0.3-0.1,0.6-0.3,0.9-0.4c3-1.6,5.6-3.6,7.8-5.8c1.1-1.1,2.1-2.4,3-3.7h0h0
	C46.9,68.6,48.4,64.8,49.2,60.6z M48.5,47.4L48.5,47.4L48.5,47.4C48.5,47.4,48.5,47.5,48.5,47.4c0.1,0.1,0.8,2.9,0.8,7
	c0,1.8-0.1,3.8-0.5,6c-0.3,1.9-0.8,3.8-1.5,5.5c0.1-1,0.2-2.1,0.2-3c0-1.4-0.2-2.7-1.6-4.2c0,0,0.6-1.6,0.5-3.3
	c-0.1-8.8-8.8-5.3-11.3-7.4c-0.7-0.6-1.2-1.2-1.5-1.9c1.3,0.9,3.7,1.9,7.8,1.9C43.5,48.2,45.8,48,48.5,47.4z M16.4,54.6
	c0-2.1,0.2-3.8,0.4-5.1c0.1-0.6,0.2-1.1,0.2-1.5c0-0.2,0.1-0.3,0.1-0.4c0-0.1,0-0.1,0-0.1l0,0c0,0,0,0,0.1,0l0,0l0,0
	c2.7,0.5,5,0.8,7,0.8c4.8,0,7.3-1.4,8.4-2.3c0.2,1.2,1,3.1,3.8,3.9c3,0.9,9.8-0.2,8.1,7.6c0,0-1.3-1-3-1c-0.4,0-0.8,0-1.2,0.1
	c-0.9,0.1-1.6-0.1-2-0.4c0.5,0.1,0.9,0.1,1.3,0.1c1.1,0,1.8-0.3,2.3-0.5c0.1,0,0.1-0.1,0.2-0.1c0.2-0.1,0.4-0.2,0.5-0.3
	c0.2-0.1,0.3-0.2,0.4-0.3c0,0,0.1-0.1,0.1-0.1c0,0,0.1-0.1,0.1-0.2c0,0,0-0.1,0-0.1c0,0,0-0.1-0.1-0.1c-0.1-0.1-0.1-0.1-0.2-0.1
	c0,0-0.1,0-0.1,0c-0.1,0-0.2,0-0.3,0c0,0-0.1,0-0.1,0c-0.2,0-0.3,0-0.4,0c-0.3,0-0.5,0-0.7-0.1c-0.3-0.1-0.5-0.1-0.7-0.3
	c-0.2-0.1-0.5-0.3-0.8-0.5c-0.1-0.1-0.2-0.1-0.3-0.2c-0.1,0-0.1-0.1-0.2-0.1c-0.4-0.3-0.8-0.6-1.4-1c-0.5-0.3-1.1-0.6-1.6-0.9
	c-0.1-0.1-1.3-0.5-1.7-0.7c-0.1,0-0.2-0.1-0.2-0.1c-1.2-1.3-2.7-2-4.3-1.8c-2.9,0.4-6.7,3.4-8.3,8.1c-0.2,0.6-0.3,1.6,0.1,2.5
	l0.6,1.6c0,0-0.8-0.7-1.2-1.4c-0.1,0.2-0.8,1.2-0.8,3.2c0,0.1,0,0.2,0,0.3c0,1,0.2,1.7,0.3,2c0,0.1,0.1,0.2,0.1,0.3
	c0,0.2,0,0.4-0.1,0.5c0,0.1,0,0.3-0.1,0.4c-0.1,0.6-0.1,1.2-0.1,1.3l0,0c0,0,0,0.1,0,0.1c0,0,0,0,0,0c0,0,0,0.1,0,0.1v0
	c0,0.1,0,0.1,0,0.2v0c0,0.6,0.1,1.4,0.1,2.3c-1.8-3-3.1-6.4-3.7-10.1C16.6,58.4,16.4,56.3,16.4,54.6z M39.2,70.1
	C39.3,70.2,39.2,70.2,39.2,70.1c-0.7,0-1.2-0.5-0.8-1.3c0.3-0.7,0.4-1.1,0.5-1.3c0,0,0.1-0.1,0.1,0c0.1,0.2,0.2,0.5-0.1,1.3
	C38.7,69.6,39,70,39.2,70.1z M35.8,65.1c0,0.2,0,0.3,0,0.5c0,0.1,0,0.1,0,0.2c0,0.3,0,0.6-0.2,0.7c-0.1,0.1-0.2,0.2-0.3,0.3
	c-0.1,0.1-0.2,0.1-0.3,0.2c-0.2,0.1-0.4,0.3-0.7,0.4c-0.1,0.1-0.2,0.1-0.3,0.1c-0.1,0-0.2,0.1-0.3,0.1c-0.1,0-0.3,0-0.4,0
	c-0.5-0.1-0.5-0.2-0.8-0.4c0,0,0,0-0.1,0C32.4,67,32.4,67,31.7,67c-0.5,0-0.9,0-1.2-0.1c-0.3-0.1-0.6-0.3-0.7-0.6
	c-0.1-0.2-0.2-0.4-0.2-0.6c-0.1-0.4-0.2-0.7-0.7-0.9c-0.6-0.2-1.4-0.3-2-1l0,0c0,0-0.1-0.1-0.1-0.1c0,0,0,0,0-0.1
	c0,0-0.1-0.1-0.1-0.1c0,0,0,0,0-0.1c0-0.1-0.1-0.1-0.1-0.2c-0.6-1.2-0.6-2.2-0.6-2.2s-0.1,0.1-0.2,0.2c-0.2,0.3-0.5,1-0.5,2
	c0,0.4,0,0.8,0.1,1.2c0,0-0.9-1.8-0.2-3.7c0-0.1,0.1-0.2,0.1-0.3c0.4-1,0.9-1.5,1.1-1.7c0.1-0.1,0.2-0.2,0.2-0.2c0,0,0,0,0,0
	c0,0.1-0.1,0.5-0.1,1.1c0,0.4,0,0.9,0.2,1.5c0.1,0.4,0.2,0.7,0.3,1.1c0,0,0,0,0,0.1c0,0.1,0.1,0.2,0.1,0.2c0,0,0.1,0.1,0.1,0.1
	c0.2,0.2,0.4,0.5,0.8,0.8c0.2,0.1,0.5,0.3,0.8,0.4c1.5,0.5,1.4,0.8,1.5,1.2c0,0.2,0.1,0.4,0.2,0.6c0.1,0.1,0.2,0.2,0.3,0.3
	c0.1,0,0.1,0.1,0.2,0.1c0.1,0,0.2,0.1,0.3,0.1c0.2,0,0.4,0,0.5,0c0.1,0,0.1,0,0.2,0c0.2,0,0.4,0,0.5,0c0.1,0,0.2,0,0.2,0
	c0.1,0,0.2,0.1,0.5,0.3c0,0,0.3,0.2,0.9-0.1c0.3-0.2,0.5-0.3,0.7-0.4c0,0,0,0,0.1,0C34.9,66.1,35,66,35,66l0,0c0,0,0,0,0.1-0.1
	c0-0.1,0.1-0.2,0.1-0.6c0-0.1,0-0.3,0-0.4c0-0.1,0-0.2,0-0.3c0-0.3,0.1-0.6,0.1-0.9c0.1-0.2,0.1-0.5,0.2-0.7c0-0.1,0.1-0.2,0.1-0.3
	c0.2-0.7,0.5-1.4,0.6-1.7c0.3-0.6,0.4-1.5,0.4-1.5s0,0.1,0.1,0.2c0,0.1,0.1,0.4,0.1,0.6c0,0,0,0.1,0,0.1c0,0,0.3-0.1,0.5-0.4
	c0,0,0.1-0.1,0.1-0.1c0.1-0.2,0.2-0.4,0.2-0.6c0-0.1,0-0.1,0-0.2c0-0.2-0.3-0.7-0.4-1.2c0-0.2-0.1-0.4-0.1-0.5c0,0,0-0.1,0-0.1
	c0-0.2,0-0.6,0-1.2c0-0.3-0.1-0.6-0.2-1c-0.2-0.7-0.6-1.4-1.3-1.6c-0.5-0.2-1.3-0.3-2-0.3c-0.2,0-0.5,0-0.7,0.1
	c-0.7,0.1-1.3,0.4-1.5,0.9c-0.1,0.1-0.1,0.3-0.1,0.4c0.1,1.4,3.2,1.3,3.2,1.3l1.5,0l0,0c0,0,0.1,0,0.2,0l0,0l0,0l0,0l0,0
	c0,0.1-0.5,0.4-1.3,0.7c-0.5,0.2-1.1,0.3-1.7,0.4c-0.5,0.1-1.1,0.1-1.8,0.1c-0.1,0-0.1,0-0.2,0c-0.1,0-0.3,0-0.4,0
	c-0.1,0-0.1,0-0.2,0c-0.1,0-0.3-0.1-0.4-0.1c-1-0.3-1.8-0.8-2.2-1.9c-0.1-0.3-0.1-0.5-0.1-0.8c0-1.2,0.7-2.1,1.6-2.7
	c0.5-0.3,1-0.6,1.5-0.7c0.7-0.1,1.4-0.2,2.1-0.2c0.7,0.1,1.1,0.2,1.5,0.3c0.4,0.1,1.5,0.6,1.7,0.7c0.5,0.2,1,0.5,1.5,0.8
	c0.6,0.4,1,0.7,1.4,0.9c0.1,0,0.1,0.1,0.2,0.1c0.1,0.1,0.2,0.1,0.3,0.2c0.2,0.2,0.4,0.3,0.6,0.4c0.3,0.2,0.5,0.3,0.8,0.4
	c0.3,0.1,0.6,0.1,1.1,0.2h0c0,0,0,0,0.1,0c0.1,0,0.2,0,0.3,0c0,0,0.1,0,0.1,0c-0.1,0-0.1,0.1-0.2,0.1c-0.1,0.1-0.3,0.2-0.5,0.3
	c-0.1,0-0.1,0.1-0.2,0.1c-0.5,0.2-1.1,0.4-2.1,0.4c-0.5,0-1-0.1-1.7-0.2v0c0,0,0,0,0,0c0,0-0.1,0.1-0.2,0.1c0,0,0.1,0.6,0.1,1.8
	c0,0.2,0.7,1.5,0.6,2.2c0,0.2-0.1,0.3-0.2,0.5c-0.4,0.6-1.3,1.1-1.3,1.1s-0.3,0.8-0.5,1.6c-0.1,0.2-0.1,0.4-0.2,0.6
	c-0.1,0.4-0.2,0.7-0.2,0.9C35.8,64.4,35.8,64.7,35.8,65.1z M32.9,59.7c-0.4,0.1-0.5,0.5-0.8,0.6c-0.2,0.1-0.3-0.2-0.1-0.4
	c0.2-0.3,0.4-0.7,1.1-0.8c0.7-0.1,0.9,0.5,1.1,0.7c0.1,0.1,0.1,0.1,0.2,0.1c0.1,0.1,0.2,0.1,0.3,0.1c0,0,0,0,0,0l-0.2,0.3
	c0,0-0.2-0.1-0.4-0.2c0,0,0,0-0.1,0c0,0-0.1,0-0.1,0c-0.1,0-0.1,0-0.2,0c-0.1,0-0.1,0.1-0.2,0.1c0,0-0.1,0.1-0.2,0.1
	c-0.2,0-0.3,0-0.4-0.1c-0.1-0.1,0-0.4,0-0.4C33.2,59.7,32.9,59.7,32.9,59.7z M32.8,81.5c-3.8-1.9-6.9-4.3-9.4-7.1
	c0.3-0.2,0.8-0.7,1.2-1.3c0.3-0.5,0.3-0.9,0.3-0.9c-2.4-1.6-2.3-7.5-2.3-7.5l0.9,3.7c0.8,3.3,2.4,3.7,2.6,3.4c0.5-0.6,1.3-3.1,1.3-3
	c0,0.6-0.7,2.9-0.7,2.9c-0.1,0.2-0.2,0.4-0.2,0.7c0,0.1,0,0.1-0.1,0.2c-0.1,0.3-0.2,0.5-0.3,0.6c-0.2,0.4-0.3,0.7-0.3,1.1
	c0,0.3,0,0.6,0.1,0.8c0.1,0.4,0.4,0.8,0.9,1.2c1.1,0.8,1.3,0.8,1.4,0.9c0.1,0,0.1,0.1,0.2,0.3c0.2,0.3,0.3,0.5,0.5,0.7
	c0,0,0.1,0.1,0.3,0.1c0.1,0,0.1,0,0.2,0c0.4,0,1.2-0.1,1.2-0.1s0.3-0.1,0.5-0.5c0.2-0.3,0.3-0.8,0.3-1.3c0-0.2,0-0.3,0-0.5
	c0-0.1,0-0.1,0-0.2c-0.1-0.7-0.4-1.2-0.5-1.4c0,0,0-0.1,0-0.1l0,0v0l0,0l0,0c0,0-0.3,0-1,0.4l0,0l0,0l0,0l0,0l0,0v0l0,0l0,0
	c0,0,0-0.1,0-0.1l0,0c0,0,0,0,0-0.1l0,0c0,0,0,0,0-0.1l0,0c0,0,0,0,0-0.1l0,0c0,0,0-0.1,0.1-0.1l0,0l0,0l0,0l0,0c0-0.1,0-0.1,0-0.1
	s0-0.1,0.1-0.2c0.1-0.1,0.3-0.3,0.8-0.5c0.8-0.4,1.5-0.6,2.1-0.8c0.2-0.1,0.3-0.1,0.4-0.2c0.5-0.2,0.8-0.4,0.8-0.8c0,0,0-0.1,0-0.2
	c0,0,0,0,0-0.1c0.6-0.2,2-0.6,3.1-1.6c0,0,0.1,0.1,0,0.3c0,0,0,0,0,0.1c-0.2,0.3-0.7,0.8-1.5,1.2c-0.2,0.1-0.4,0.2-0.6,0.3
	c0,0,0.5,1.7-0.2,2.8c-0.1,0.2-0.3,0.4-0.4,0.5c-0.4,0.6-0.6,0.8-0.7,1c0,0,0,0,0,0.1c0,0.1-0.1,0.1-0.2,0.2
	c-0.3,0.4-0.7,1.2-0.7,1.7c0,0,0.5,0.1,1,0.1c0.1,0,0.1,0,0.2,0c0.6,0,1.1,0,1.4-0.1c0.3-0.1,0.5-0.2,0.6-0.3c0,0,0.1-1.7,0.5-2.1
	c0.4-0.3,0.5-0.5,0.5-0.7c0,0,0-0.1,0-0.1c0-0.3-0.1-0.6,0.5-1c0.6-0.5,0.9-1.4,2.3-2.2c0,0,0.5-0.2,0.4-1c0.3,0.1,0.5-0.1,0.7-0.2
	c-1.5-3.7-0.4-5.4-0.2-5.6l0,0c-0.8,3.8,1.5,6.9,2.6,8.4c-0.7,0.9-1.5,1.9-2.4,2.7c-1.2,1.2-2.5,2.3-3.9,3.3
	C35.8,79.9,34.4,80.7,32.8,81.5L32.8,81.5L32.8,81.5z"/>
<path class="st0" d="M60.6,68.1v13.8h2.3v-5H66c0.9,0,1.8-0.2,2.5-0.5c0.7-0.4,1.3-0.9,1.7-1.5c0.4-0.7,0.6-1.4,0.6-2.3
	c0-0.9-0.2-1.7-0.6-2.3c-0.4-0.7-1-1.2-1.7-1.5c-0.7-0.4-1.6-0.5-2.5-0.5H60.6z M62.9,70.1h3c0.8,0,1.5,0.2,1.9,0.7
	c0.5,0.4,0.7,1,0.7,1.8c0,0.7-0.2,1.3-0.7,1.8c-0.5,0.4-1.1,0.7-1.9,0.7h-3V70.1z M77.2,71.8c-0.8,0-1.4,0.1-1.9,0.4
	c-0.5,0.3-0.8,0.6-1.1,1.1L74,71.8h-1.9v10.1h2.1v-5.1c0-0.9,0.2-1.6,0.6-2.2c0.4-0.6,1-0.9,1.9-0.9h0.9v-2H77.2z M83.5,82
	c1,0,1.9-0.2,2.7-0.6c0.8-0.4,1.4-1,1.8-1.8c0.4-0.8,0.6-1.7,0.6-2.7c0-1-0.2-1.9-0.6-2.7c-0.4-0.8-1-1.4-1.8-1.8
	c-0.8-0.4-1.7-0.7-2.7-0.7c-1,0-1.9,0.2-2.7,0.7c-0.8,0.4-1.4,1-1.8,1.8c-0.4,0.8-0.6,1.7-0.6,2.7c0,1,0.2,1.9,0.6,2.7
	c0.4,0.8,1,1.4,1.8,1.8C81.6,81.8,82.5,82,83.5,82z M83.5,80.2c-0.9,0-1.6-0.3-2.2-0.9c-0.5-0.6-0.8-1.4-0.8-2.4
	c0-1,0.3-1.8,0.8-2.4c0.5-0.6,1.3-0.9,2.2-0.9c0.9,0,1.6,0.3,2.2,0.9c0.5,0.6,0.8,1.4,0.8,2.4c0,1-0.3,1.8-0.8,2.4
	C85.1,79.9,84.4,80.2,83.5,80.2z M104.3,81.9v-2h-5.9V68.1h-2.3v13.8H104.3z M105.1,76.9c0,1,0.2,1.9,0.6,2.7c0.4,0.8,1,1.4,1.8,1.8
	c0.8,0.4,1.7,0.6,2.8,0.6c1.2,0,2.2-0.3,3-1c0.8-0.7,1.3-1.5,1.5-2.5h-2.1c-0.1,0.6-0.4,1-0.9,1.3c-0.4,0.3-1,0.5-1.7,0.5
	c-0.8,0-1.5-0.3-2-0.8c-0.5-0.5-0.8-1.2-0.8-2.1v-0.1h7.6c0-0.3,0.1-0.5,0.1-0.8c0-1-0.2-1.8-0.7-2.5c-0.4-0.7-1-1.3-1.8-1.7
	c-0.7-0.4-1.6-0.6-2.6-0.6c-1,0-1.8,0.2-2.6,0.6c-0.7,0.4-1.3,1-1.7,1.8C105.3,74.9,105.1,75.9,105.1,76.9z M107.4,75.8
	c0.1-0.7,0.4-1.3,0.9-1.7c0.5-0.4,1.1-0.6,1.8-0.6c0.8,0,1.4,0.2,1.9,0.6c0.5,0.4,0.8,1,0.9,1.7H107.4z M125.8,80.1
	c-0.4,0-0.7-0.2-0.7-0.7v-4c0-1.2-0.4-2.1-1.1-2.7c-0.7-0.6-1.8-0.9-3.1-0.9c-1.3,0-2.3,0.3-3.1,0.8c-0.8,0.6-1.2,1.3-1.3,2.4h2.1
	c0.1-0.4,0.3-0.8,0.7-1.1c0.4-0.3,0.9-0.4,1.5-0.4c0.7,0,1.2,0.2,1.6,0.5c0.4,0.3,0.6,0.8,0.6,1.3v0.6h-2.5c-1.4,0-2.5,0.3-3.2,0.8
	c-0.7,0.6-1.1,1.4-1.1,2.4c0,0.9,0.3,1.6,1,2.2c0.7,0.5,1.6,0.8,2.7,0.8c1.5,0,2.6-0.6,3.3-1.7c0,0.5,0.1,0.9,0.4,1.2
	c0.3,0.3,0.8,0.4,1.4,0.4h1.1v-1.9H125.8z M123,77.8c0,0.8-0.3,1.4-0.8,1.9c-0.5,0.5-1.2,0.7-2.1,0.7c-0.6,0-1-0.1-1.4-0.4
	c-0.3-0.3-0.5-0.6-0.5-1c0-0.5,0.2-0.9,0.5-1.1c0.4-0.3,0.9-0.4,1.5-0.4h2.6V77.8z M135.2,71.8l-0.2,1.6c-0.3-0.5-0.8-0.9-1.3-1.2
	c-0.6-0.3-1.2-0.5-2-0.5c-0.9,0-1.7,0.2-2.4,0.6c-0.7,0.4-1.3,1-1.7,1.8c-0.4,0.8-0.6,1.7-0.6,2.7c0,1.1,0.2,2,0.6,2.7
	c0.4,0.8,1,1.4,1.7,1.8c0.7,0.4,1.5,0.6,2.5,0.6c1.5,0,2.6-0.6,3.3-1.7v1.1c0,1.9-1,2.8-2.9,2.8c-0.8,0-1.4-0.2-1.8-0.5
	c-0.5-0.3-0.8-0.7-0.9-1.3h-2.2c0.1,1.1,0.6,2,1.4,2.6c0.9,0.6,2,0.9,3.3,0.9c1.8,0,3.1-0.4,3.9-1.2c0.8-0.8,1.3-1.9,1.3-3.3v-9.7
	H135.2z M132.1,80.2c-0.9,0-1.6-0.3-2.1-0.9c-0.5-0.6-0.8-1.4-0.8-2.4c0-1,0.3-1.8,0.8-2.4c0.5-0.6,1.2-0.9,2.1-0.9
	c0.9,0,1.6,0.3,2.1,0.9c0.5,0.6,0.8,1.4,0.8,2.4c0,1-0.3,1.8-0.8,2.4C133.6,79.9,132.9,80.2,132.1,80.2z M146.2,71.8v5
	c0,1-0.2,1.9-0.7,2.5c-0.5,0.6-1.1,0.9-1.9,0.9c-0.8,0-1.4-0.3-1.8-0.8c-0.4-0.5-0.6-1.3-0.6-2.2v-5.3h-2.1v5.6
	c0,1.6,0.4,2.8,1.1,3.6c0.7,0.7,1.7,1.1,2.9,1.1c1.3,0,2.4-0.5,3.1-1.4l0.2,1.3h1.9V71.8H146.2z M150.1,76.9c0,1,0.2,1.9,0.6,2.7
	c0.4,0.8,1,1.4,1.8,1.8c0.8,0.4,1.7,0.6,2.8,0.6c1.2,0,2.2-0.3,3-1c0.8-0.7,1.3-1.5,1.5-2.5h-2.1c-0.1,0.6-0.4,1-0.9,1.3
	c-0.4,0.3-1,0.5-1.7,0.5c-0.8,0-1.5-0.3-2-0.8c-0.5-0.5-0.8-1.2-0.8-2.1v-0.1h7.6c0-0.3,0.1-0.5,0.1-0.8c0-1-0.2-1.8-0.7-2.5
	c-0.4-0.7-1-1.3-1.8-1.7c-0.7-0.4-1.6-0.6-2.6-0.6c-1,0-1.8,0.2-2.6,0.6c-0.7,0.4-1.3,1-1.7,1.8C150.3,74.9,150.1,75.9,150.1,76.9z
	 M152.4,75.8c0.1-0.7,0.4-1.3,0.9-1.7c0.5-0.4,1.1-0.6,1.8-0.6c0.8,0,1.4,0.2,1.9,0.6c0.5,0.4,0.8,1,0.9,1.7H152.4z"/>
<path class="st0" d="M59.8,55.9c0,1.7,0.4,3.1,1.3,4c0.9,0.9,2.1,1.4,3.7,1.4c1.7,0,2.9-0.4,3.8-1.3c0.9-0.9,1.3-2.3,1.3-4.1v-8.5
	h-2.3v8.6c0,1.2-0.2,2-0.7,2.6c-0.5,0.5-1.2,0.8-2.1,0.8c-0.9,0-1.6-0.3-2.1-0.9c-0.5-0.6-0.7-1.4-0.7-2.5H59.8z M79.1,51v5
	c0,1-0.2,1.9-0.7,2.5c-0.5,0.6-1.1,0.9-1.9,0.9c-0.8,0-1.4-0.3-1.8-0.8c-0.4-0.5-0.6-1.3-0.6-2.3V51H72v5.6c0,1.6,0.4,2.8,1.1,3.6
	c0.7,0.7,1.7,1.1,2.9,1.1c1.3,0,2.4-0.5,3.1-1.4l0.2,1.3h1.9V51H79.1z M88.8,50.9c-1.4,0-2.5,0.5-3.3,1.6L85.3,51h-1.9v14.1h2.1
	v-5.4c0.3,0.5,0.8,0.8,1.3,1.1c0.6,0.3,1.2,0.4,2,0.4c0.9,0,1.7-0.2,2.5-0.6c0.7-0.4,1.3-1,1.7-1.8c0.4-0.8,0.6-1.7,0.6-2.7
	c0-1.1-0.2-2-0.6-2.8c-0.4-0.8-1-1.4-1.7-1.8C90.6,51.1,89.7,50.9,88.8,50.9z M88.5,59.5c-0.9,0-1.6-0.3-2.1-0.9
	c-0.5-0.6-0.8-1.5-0.8-2.5c0-1,0.3-1.8,0.8-2.4c0.5-0.6,1.2-0.9,2.1-0.9c0.9,0,1.6,0.3,2.1,0.9c0.5,0.6,0.8,1.4,0.8,2.4
	c0,1-0.3,1.8-0.8,2.4C90.1,59.1,89.3,59.5,88.5,59.5z M96.3,47c-0.4,0-0.7,0.1-0.9,0.4c-0.3,0.2-0.4,0.5-0.4,0.9
	c0,0.4,0.1,0.7,0.4,0.9c0.2,0.2,0.6,0.4,0.9,0.4c0.4,0,0.7-0.1,0.9-0.4c0.2-0.2,0.4-0.5,0.4-0.9c0-0.4-0.1-0.7-0.4-0.9
	C97,47.1,96.7,47,96.3,47z M95.3,61.1h2.1V51h-2.1V61.1z M99.6,61.1h2.1V47.3h-2.1V61.1z M103.5,56.1c0,1,0.2,1.9,0.6,2.7
	c0.4,0.8,1,1.4,1.8,1.8c0.8,0.4,1.7,0.6,2.8,0.6c1.2,0,2.2-0.3,3-1c0.8-0.7,1.3-1.5,1.5-2.5h-2.1c-0.1,0.6-0.4,1-0.9,1.3
	c-0.4,0.3-1,0.5-1.7,0.5c-0.8,0-1.5-0.3-2-0.8c-0.5-0.5-0.8-1.2-0.8-2.1v-0.1h7.6c0-0.3,0.1-0.5,0.1-0.8c0-1-0.2-1.8-0.7-2.5
	c-0.4-0.7-1-1.3-1.8-1.7c-0.7-0.4-1.6-0.6-2.6-0.6c-1,0-1.8,0.2-2.6,0.6c-0.7,0.4-1.3,1-1.7,1.8C103.7,54.2,103.5,55.1,103.5,56.1z
	 M105.8,55c0.1-0.7,0.4-1.3,0.9-1.7c0.5-0.4,1.1-0.6,1.8-0.6c0.7,0,1.4,0.2,1.9,0.6c0.5,0.4,0.8,1,0.9,1.7H105.8z M120.2,51
	c-0.8,0-1.4,0.1-1.9,0.4c-0.5,0.3-0.8,0.6-1.1,1.1L117,51h-1.9v10.1h2.1v-5.1c0-0.9,0.2-1.6,0.6-2.2c0.4-0.6,1-0.9,1.9-0.9h0.9v-2
	H120.2z"/>
</svg>
